<?xml version="1.0" standalone="no"?>
<!DOCTYPE svg PUBLIC "-//W3C//DTD SVG 20010904//EN"
 "http://www.w3.org/TR/2001/REC-SVG-20010904/DTD/svg10.dtd">
<svg version="1.0" xmlns="http://www.w3.org/2000/svg"
 width="512.000000pt" height="512.000000pt" viewBox="0 0 512.000000 512.000000"
 preserveAspectRatio="xMidYMid meet">

<g transform="translate(0.000000,512.000000) scale(0.100000,-0.100000)"
fill="#000000" stroke="none">
<path d="M4420 5031 c-14 -5 -36 -14 -49 -22 -27 -16 -427 -547 -442 -586 -22
-60 3 -126 63 -163 25 -15 51 -20 106 -20 l72 0 0 -42 c0 -65 -27 -165 -61
-229 -40 -74 -102 -138 -189 -195 -72 -46 -88 -71 -76 -118 8 -34 360 -296
397 -296 36 0 164 96 251 188 151 161 254 366 288 572 21 133 11 120 89 120
80 0 125 23 154 80 35 68 26 86 -186 372 -108 145 -206 274 -218 287 -46 49
-133 72 -199 52z m255 -388 l176 -238 -87 -5 c-102 -6 -124 -23 -124 -95 0
-147 -56 -343 -136 -477 -48 -79 -178 -228 -235 -269 l-28 -20 -88 66 -89 66
76 77 c132 134 200 315 187 499 -10 133 -27 152 -139 153 -43 0 -78 2 -78 5 0
3 79 111 175 240 123 165 180 235 194 235 14 0 71 -70 196 -237z"/>
<path d="M2379 4707 c-25 -7 -66 -25 -90 -39 -25 -15 -395 -333 -822 -707
l-777 -681 -48 0 c-210 0 -412 -126 -502 -314 -21 -45 -43 -108 -49 -140 -15
-83 -15 -2209 0 -2292 35 -194 186 -361 389 -430 53 -18 123 -19 1880 -19
1757 0 1827 1 1880 19 182 62 305 182 372 363 20 54 22 81 26 354 l4 297 54 7
c74 9 182 65 234 121 23 25 56 75 73 112 l32 67 0 255 0 255 -32 67 c-17 37
-50 87 -73 112 -52 56 -160 112 -235 121 l-55 7 0 262 c0 144 -5 289 -11 322
-17 97 -78 211 -154 287 -76 77 -190 138 -289 156 -33 6 -178 11 -322 11
l-263 0 -3 288 c-3 273 -4 290 -26 344 -34 84 -107 160 -200 205 -72 36 -81
38 -172 38 -95 0 -96 0 -204 -52 -59 -29 -110 -53 -112 -53 -2 0 -4 69 -4 153
0 175 -13 242 -63 326 -66 110 -183 180 -315 187 -45 2 -96 -1 -123 -9z m207
-175 c45 -23 84 -63 110 -112 16 -30 19 -63 22 -242 l3 -207 -691 -346 -691
-345 -200 2 -200 3 695 610 c404 354 718 622 748 638 45 25 61 28 109 24 30
-3 73 -14 95 -25z m695 -547 c25 -9 62 -32 83 -52 71 -69 71 -67 74 -375 l3
-278 -868 1 -868 0 650 326 c358 180 684 341 725 360 84 37 133 41 201 18z
m971 -907 c91 -45 147 -103 191 -196 l32 -67 3 -287 3 -287 -453 -3 -453 -3
-60 -28 c-107 -50 -172 -135 -211 -278 -26 -92 -26 -406 0 -498 39 -143 104
-228 211 -278 l60 -28 453 -3 453 -3 -3 -287 -3 -287 -32 -67 c-44 -93 -100
-151 -191 -196 l-76 -37 -1815 0 -1816 0 -67 32 c-93 44 -151 100 -196 191
l-37 76 0 1135 0 1136 32 67 c17 37 50 87 72 111 44 48 135 101 197 116 23 5
773 8 1835 8 l1795 -2 76 -37z m462 -1010 c55 -16 138 -99 154 -154 16 -56 16
-412 0 -468 -16 -55 -99 -138 -154 -154 -54 -16 -1060 -17 -1117 -1 -59 16
-103 68 -129 152 -20 63 -23 93 -23 237 0 144 3 174 23 237 25 82 70 136 125
152 51 15 1071 14 1121 -1z"/>
<path d="M3845 1991 c-92 -24 -173 -90 -215 -176 -19 -41 -24 -66 -24 -135 -1
-78 2 -90 33 -148 38 -70 70 -100 145 -140 43 -22 64 -26 136 -26 72 0 93 4
136 26 75 40 107 70 145 140 31 58 34 70 33 148 0 72 -4 93 -26 136 -39 75
-70 107 -137 143 -65 34 -164 49 -226 32z m138 -165 c103 -43 128 -177 48
-257 -65 -65 -157 -65 -222 0 -124 123 13 325 174 257z"/>
</g>
</svg>
